
<svg
   xmlns:dc="http://purl.org/dc/elements/1.1/"
   xmlns:cc="http://creativecommons.org/ns#"
   xmlns:rdf="http://www.w3.org/1999/02/22-rdf-syntax-ns#"
   xmlns:svg="http://www.w3.org/2000/svg"
   xmlns="http://www.w3.org/2000/svg"
   xmlns:sodipodi="http://sodipodi.sourceforge.net/DTD/sodipodi-0.dtd"
   xmlns:inkscape="http://www.inkscape.org/namespaces/inkscape"
   width="44.448059mm"
   height="45.796532mm"
   viewBox="0 0 44.448059 45.796532"
   version="1.1"
   id="svg3698"
   inkscape:version="0.92.0 r15299"
   sodipodi:docname="foguete.svg">
  <defs
     id="defs3692" />
  <sodipodi:namedview
     id="base"
     pagecolor="#ffffff"
     bordercolor="#666666"
     borderopacity="1.0"
     inkscape:pageopacity="0.0"
     inkscape:pageshadow="2"
     inkscape:zoom="3.959798"
     inkscape:cx="39.408149"
     inkscape:cy="94.471666"
     inkscape:document-units="mm"
     inkscape:current-layer="svg3698"
     showgrid="false"
     inkscape:pagecheckerboard="true"
     fit-margin-top="0"
     fit-margin-left="0"
     fit-margin-right="0"
     fit-margin-bottom="0"
     inkscape:window-width="1920"
     inkscape:window-height="1017"
     inkscape:window-x="-8"
     inkscape:window-y="-8"
     inkscape:window-maximized="1" />
  <metadata
     id="metadata3695">
    <rdf:RDF>
      <cc:Work
         rdf:about="">
        <dc:format>image/svg+xml</dc:format>
        <dc:type
           rdf:resource="http://purl.org/dc/dcmitype/StillImage" />
        <dc:title></dc:title>
      </cc:Work>
    </rdf:RDF>
  </metadata>
  <g
     inkscape:label="Camada 1"
     inkscape:groupmode="layer"
     id="layer1"
     transform="translate(-60.174777,-120.63157)" />
  <path class="animated fadeInUp wow" data-wow-delay="0.75s"
     id="path3795"
     style="fill:#fefefe;stroke-width:0.26458332"
     d="m 24.164473,39.03062 c -0.26219,-0.68327 0.27617,-1.30386 1.1311,-1.30386 0.67352,0 0.76491,0.0948 0.76491,0.79375 0,0.70247 -0.0991,0.80331 -0.86171,0.8768 -0.61908,0.0597 -0.91031,-0.0436 -1.0343,-0.36669 z M 37.66134,31.64135 c 0.52242,-0.21828 1.25439,-0.39688 1.62661,-0.39688 0.659363,0 0.666703,-0.0194 0.28556,-0.75648 -0.79386,-1.53514 -3.29665,-1.75754 -4.37344,-0.38862 -0.70882,0.90112 -0.69216,0.97731 0.31927,1.45983 1.13293,0.54049 1.05242,0.53741 2.142,0.0822 z M 2.0753951,45.33353 C 2.0532251,45.07887 2.0215951,44.74 2.0050851,44.58048 1.9885851,44.42096 1.5304671,43.87112 0.98705211,43.35861 0.04631111,42.47138 -9.2888994e-4,42.34597 1.3110062e-5,40.73823 7.1411006e-4,39.54149 0.14862611,38.80758 0.50785011,38.21847 c 0.367428,-0.60258 0.46788,-1.12174 0.365186,-1.88739 -0.198816,-1.48228 0.30724999,-2.78039 1.50620999,-3.86358 1.315705,-1.18866 2.614542,-1.45268 4.264126,-0.8668 1.103806,0.39203 1.311411,0.39643 1.990354,0.0422 1.337218,-0.69776 2.3363019,-0.75032 3.6038869,-0.18961 1.536661,0.67974 2.528686,1.99635 2.751449,3.65173 0.09613,0.71437 0.351164,1.57117 0.566733,1.90399 l 0.391944,0.60512 0.297552,-0.60512 c 0.163654,-0.33282 0.69558,-0.80469 1.182056,-1.0486 0.486477,-0.24391 1.147338,-0.69039 1.468581,-0.99219 0.709995,-0.667 1.885443,-0.71568 2.234181,-0.0925 0.341066,0.60945 -0.09502,1.3959 -0.774026,1.3959 -0.318048,0 -0.625947,0.26181 -0.777892,0.66145 -0.177724,0.46745 -0.44985,0.66146 -0.927797,0.66146 -0.912101,0 -1.093387,0.6276 -0.426266,1.47571 0.421603,0.53598 0.486585,0.81351 0.280596,1.1984 -0.344904,0.64446 -0.921245,0.63523 -1.764753,-0.0283 -1.259931,-0.99107 -2.63099,-0.37995 -2.768442,1.23395 -0.101963,1.19722 -0.797553,1.73564 -1.427921,1.10527 -0.634401,-0.6344 -0.259554,-2.41412 0.750844,-3.56489 0.802671,-0.91419 0.803818,-0.92001 0.256984,-1.30303 -0.47412,-0.33208 -0.529693,-0.5746 -0.406117,-1.77229 0.129685,-1.25688 0.07464,-1.45608 -0.584518,-2.11516 -0.837065,-0.83697 -2.526539,-1.00252 -3.4721009,-0.34022 -0.762272,0.53392 -1.003719,1.90952 -0.476414,2.71429 0.984954,1.50323 -0.374886,2.67411 -1.40815,1.21248 -0.690267,-0.97644 -0.939187,-2.20649 -0.617657,-3.05218 0.231666,-0.60932 0.178078,-0.71568 -0.50268,-0.99766 -0.579723,-0.24013 -0.982155,-0.24296 -1.682425,-0.0119 -1.179462,0.38926 -1.506064,0.80039 -1.682847,2.11841 l -0.143345,1.06871 h 1.205163 c 0.910526,0 1.40418,0.16746 2.019212,0.68498 0.909491,0.76528 1.011752,1.20281 0.399825,1.71067 -0.34315,0.28479 -0.543102,0.26765 -1.165303,-0.0999 -1.7159,-1.0136 -3.55256,-7e-5 -3.397159,1.87467 0.06712,0.80978 0.260861,1.10344 1.074083,1.62811 0.679977,0.4387 0.992188,0.83432 0.992188,1.25726 v 0.61713 h 8.2344799 c 7.192611,0 8.193881,-0.0489 7.913602,-0.38664 -0.406913,-0.4903 0.03736,-1.97924 0.795212,-2.66509 0.72339,-0.65466 0.655063,-0.88726 -0.388743,-1.32339 -1.081659,-0.45195 -1.298981,-0.74451 -1.075674,-1.44809 0.328885,-1.03622 2.612171,-0.36903 3.330515,0.97321 0.228382,0.42674 0.564769,0.61666 1.092207,0.61666 1.522723,0 3.22587,1.34315 3.07227,2.42288 -0.12302,0.86474 -0.880997,0.91061 -1.831487,0.11083 -1.308518,-1.10104 -2.423597,-0.84781 -3.376207,0.76675 l -0.550412,0.93288 h 9.912956 9.912953 v -0.61713 c 0,-0.42294 0.31221,-0.81856 0.99219,-1.25726 0.8178,-0.52763 1.00673,-0.81629 1.07494,-1.64246 0.0694,-0.84059 -0.0529,-1.12906 -0.75802,-1.78772 -0.70373,-0.65738 -0.8085,-0.90361 -0.64278,-1.51073 0.32616,-1.19487 0.27144,-2.87883 -0.10842,-3.33652 -0.19585,-0.236 -0.8093,-0.56487 -1.36322,-0.73082 -0.866293,-0.25955 -1.129913,-0.23002 -1.885383,0.2112 -1.18778,0.6937 -1.5393,1.73235 -0.93983,2.77688 1.02629,1.7882 0.11637,2.76338 -1.20184,1.28804 -0.72451,-0.81086 -0.77323,-0.99514 -0.67421,-2.55016 0.11883,-1.86621 0.0445,-1.95582 -1.62274,-1.95582 -1.33367,0 -2.39569,1.02067 -2.39569,2.30243 0,1.25121 0.373,1.83352 1.29224,2.01737 0.99009,0.19802 1.378,1.16452 0.67399,1.6793 -0.66032,0.48284 -0.9594,0.44479 -1.99545,-0.25388 l -0.89682,-0.60477 -1.05834,1.24713 c -1.08805,1.28216 -2.05663,1.63898 -2.35294,0.86682 -0.25277,-0.65871 -0.19854,-0.84844 0.40256,-1.40845 0.74067,-0.69004 0.47854,-1.34804 -0.53702,-1.34804 -0.548377,0 -0.834077,-0.15705 -0.949967,-0.52222 -0.0912,-0.28722 -0.48614,-0.67577 -0.87773,-0.86346 -0.49054,-0.23511 -0.71198,-0.54586 -0.71198,-0.99913 0,-0.98611 1.45925,-1.07478 2.388867,-0.14517 0.37284,0.37285 0.83262,0.6779 1.02173,0.6779 0.18912,0 0.5568,0.23532 0.81709,0.52293 0.64433,0.71198 0.82879,0.51728 1.01722,-1.07376 0.19425,-1.64009 1.09965,-2.93734 2.57563,-3.69032 0.60499,-0.30865 1.04374,-0.72429 1.04475,-0.98975 0.003,-0.743 0.95401,-1.96969 2.03448,-2.62377 1.16073,-0.70267 2.90581,-0.80758 3.99618,-0.24026 1.354493,0.70474 2.698843,2.66467 2.698843,3.93463 0,0.34566 0.2942,0.90486 0.65378,1.24267 0.85281,0.80117 1.29491,2.18766 1.11804,3.50632 -0.10269,0.76565 -0.002,1.28481 0.36519,1.88739 0.35923,0.58911 0.50714,1.32302 0.50784,2.51976 0.001,1.60774 -0.0463,1.73315 -0.98704,2.62038 -0.54342,0.51251 -1.00153,1.06235 -1.01803,1.22187 -0.0165,0.15952 -0.0482,0.49839 -0.0703,0.75305 -0.038,0.43656 -1.18958,0.46302 -20.148638,0.46302 -18.9590529,0 -20.1106379,-0.0265 -20.1486339,-0.46302 z"
     inkscape:connector-curvature="0" />
  <path class="animated fadeInDown wow" data-wow-delay="0.5s"
     style="fill:#fefefe;stroke-width:0.26458332"
     d="m 22.400417,30.27433 c -0.09701,-0.097 -0.176388,-1.15399 -0.176388,-2.34885 0,-1.57926 0.105205,-2.25978 0.385284,-2.49222 0.72105,-0.59842 0.937632,-0.0164 0.937632,2.51954 0,2.24584 -0.04895,2.49792 -0.485069,2.49792 -0.266789,0 -0.564445,-0.0794 -0.661459,-0.17639 z"
     id="path3793"
     inkscape:connector-curvature="0" />
  <path class="animated fadeInDown wow" data-wow-delay="0.5s"
     style="fill:#fefefe;stroke-width:0.26458332"
     d="m 20.226174,29.05579 c -0.08033,-0.20933 -0.110156,-1.14196 -0.06629,-2.07252 0.06092,-1.29209 0.173553,-1.69192 0.476639,-1.69192 0.317104,0 0.396875,0.39442 0.396875,1.96232 0,1.33424 -0.105813,1.9976 -0.33059,2.07253 -0.181824,0.0606 -0.396312,-0.0611 -0.476639,-0.27041 z"
     id="path3791"
     inkscape:connector-curvature="0" />
  <path class="animated fadeInDown wow" data-wow-delay="0.5s"
     style="fill:#fefefe;stroke-width:0.26458332"
     d="m 24.988673,29.05579 c -0.0803,-0.20933 -0.11015,-1.14196 -0.0663,-2.07252 0.0609,-1.29209 0.17355,-1.69192 0.47664,-1.69192 0.3171,0 0.39687,0.39442 0.39687,1.96232 0,1.33424 -0.10581,1.9976 -0.33059,2.07253 -0.18182,0.0606 -0.39631,-0.0611 -0.47664,-0.27041 z"
     id="path3789"
     inkscape:connector-curvature="0" />
  <g class="animated fadeInUp wow" data-wow-delay="0.25s" 
     id="g43">
    <path
       inkscape:connector-curvature="0"
       d="m 22.548653,15.7002 c 0.06102,-3.96603 0.133967,-4.69635 0.469126,-4.69635 0.335158,0 0.40811,0.73032 0.469125,4.69635 l 0.07225,4.69636 h 1.865919 1.865917 l -0.048,-0.72761 c -0.0264,-0.40018 -0.0354,-1.48002 -0.0199,-2.39965 0.0264,-1.57589 0.0623,-1.66719 0.62335,-1.5875 0.50459,0.0717 0.60735,0.26981 0.67427,1.30014 0.066,1.01535 0.25119,1.38375 1.12448,2.2365 l 1.04553,1.02093 v -1.78036 c 0,-1.6383 -0.0776,-1.88432 -0.97266,-3.08321 -0.8456,-1.13265 -1.01343,-1.24711 -1.28466,-0.87618 -0.1716,0.23466 -0.49404,0.35681 -0.71655,0.27142 C 27.38926,14.64533 27.2895,13.91985 27.19249,10.95774 27.09619,8.0176 26.95838,7.00573 26.49026,5.80187 25.874633,4.2187 24.823133,2.72822 23.696891,1.84232 L 23.017808,1.30815 22.338724,1.84232 c -1.126899,0.88642 -2.177978,2.37685 -2.792346,3.95955 -0.460711,1.18687 -0.606611,2.22906 -0.702792,5.02022 l -0.121379,3.5224 -0.744752,-0.0781 c -0.616931,-0.0647 -0.906752,0.13405 -1.688658,1.15808 -0.867246,1.1358 -0.943906,1.38152 -0.943906,3.02556 v 1.78936 l 1.045518,-1.02093 c 0.873297,-0.85275 1.058525,-1.22115 1.124479,-2.2365 0.06693,-1.03033 0.16969,-1.22848 0.674274,-1.30014 0.579817,-0.0824 0.595312,-0.0221 0.595312,2.3151 v 2.39966 h 1.845978 1.845979 z m -3.094448,8.87126 c -0.06232,-0.18615 -0.211578,-0.86953 -0.33169,-1.51863 -0.176227,-0.95235 -0.34486,-1.20983 -0.87354,-1.33376 -0.411909,-0.0966 -0.686546,-0.37058 -0.739703,-0.73805 -0.0465,-0.32145 -0.161057,-0.58446 -0.254568,-0.58446 -0.09351,0 -0.671715,0.49237 -1.284898,1.09416 -1.71437,1.68253 -1.947861,1.41024 -1.947861,-2.27155 V 16.1731 l 1.719792,-2.35198 c 1.567798,-2.14411 1.719791,-2.46762 1.719791,-3.66051 0,-3.50865 1.172045,-6.57846 3.33993,-8.74791 1.88224,-1.8836 2.550401,-1.8836 4.432645,0 2.167877,2.16945 3.339927,5.23926 3.339927,8.74791 0,1.19289 0.15199,1.5164 1.71979,3.66051 l 1.71979,2.35198 v 3.04607 c 0,3.68179 -0.23349,3.95408 -1.94786,2.27155 -0.61318,-0.60179 -1.19139,-1.09416 -1.2849,-1.09416 -0.0935,0 -0.20807,0.26301 -0.25457,0.58446 -0.0533,0.36823 -0.32794,0.64152 -0.74241,0.73869 -0.55381,0.12982 -0.70113,0.38263 -0.93138,1.59834 l -0.27352,1.44413 -3.505727,0.0739 c -2.664449,0.0561 -3.532924,-0.007 -3.619038,-0.26458 z m 5.944828,-1.0678 c 0,-0.0373 0.11075,-0.45406 0.24611,-0.92604 l 0.24611,-0.85815 h -1.17215 c -0.86553,0 -1.172158,0.10382 -1.172158,0.39688 0,0.22048 -0.235185,0.39687 -0.529166,0.39687 -0.293982,0 -0.529167,-0.17639 -0.529167,-0.39687 0,-0.29306 -0.306628,-0.39688 -1.172156,-0.39688 h -1.172155 l 0.246114,0.85815 c 0.135362,0.47198 0.246113,0.8887 0.246113,0.92604 0,0.0373 1.071563,0.0679 2.381251,0.0679 1.309684,0 2.381254,-0.0306 2.381254,-0.0679 z"
       style="fill:#fefefe;stroke-width:0.26458332"
       id="path3783" />
    <path
       inkscape:connector-curvature="0"
       d="m 24.123763,7.30076 c 0.24862,-0.54566 0.21753,-0.7525 -0.17897,-1.19063 -0.263924,-0.29163 -0.681081,-0.53024 -0.927014,-0.53024 -0.245934,0 -0.663091,0.23861 -0.927015,0.53024 -0.712694,0.78752 -0.180082,1.85101 0.927015,1.85101 0.601661,0 0.881124,-0.16687 1.105984,-0.66038 z m -2.769781,1.45091 c -1.810683,-1.42429 -0.674113,-4.4947 1.663797,-4.4947 1.593544,0 2.861924,1.58885 2.518084,3.1543 -0.37652,1.71433 -2.742441,2.47266 -4.181881,1.3404 z"
       style="fill:#fefefe;stroke-width:0.26458332"
       id="path3729" />
  </g>
</svg>
