<svg
   xmlns:dc="http://purl.org/dc/elements/1.1/"
   xmlns:cc="http://creativecommons.org/ns#"
   xmlns:rdf="http://www.w3.org/1999/02/22-rdf-syntax-ns#"
   xmlns:svg="http://www.w3.org/2000/svg"
   xmlns="http://www.w3.org/2000/svg"
   xmlns:sodipodi="http://sodipodi.sourceforge.net/DTD/sodipodi-0.dtd"
   xmlns:inkscape="http://www.inkscape.org/namespaces/inkscape"
   version="1.1"
   id="svg3858"
   width="132"
   height="117"
   viewBox="0 0 132 117"
   sodipodi:docname="sobre1.svg"
   inkscape:version="0.92.0 r15299">
  <metadata
     id="metadata3864">
    <rdf:RDF>
      <cc:Work
         rdf:about="">
        <dc:format>image/svg+xml</dc:format>
        <dc:type
           rdf:resource="http://purl.org/dc/dcmitype/StillImage" />
        <dc:title />
      </cc:Work>
    </rdf:RDF>
  </metadata>
  <defs
     id="defs3862" />
  <sodipodi:namedview
     pagecolor="#ffffff"
     bordercolor="#666666"
     borderopacity="1"
     objecttolerance="10"
     gridtolerance="10"
     guidetolerance="10"
     inkscape:pageopacity="0"
     inkscape:pageshadow="2"
     inkscape:window-width="1920"
     inkscape:window-height="1017"
     id="namedview3860"
     showgrid="false"
     inkscape:zoom="2.017094"
     inkscape:cx="66"
     inkscape:cy="58.5"
     inkscape:window-x="-8"
     inkscape:window-y="-8"
     inkscape:window-maximized="1"
     inkscape:current-layer="svg3858" />
  <g
     id="g3868">
    <path
       style="fill:#544aa6"
       d="M 5.3138219,115.04977 C 0.93356944,112.37894 0,110.18566 0,102.56574 V 96 H 4.4861469 8.9722938 L 9.2361469,63.75 C 9.4938261,32.254618 9.546798,31.5 11.5,31.5 c 1.961353,0 2,0.666667 2,34.5 v 34.5 l -4.75,0.30479 C 4.2101271,101.0961 4,101.24188 4,104.10025 c 0,1.84193 0.9427997,3.93346 2.4545455,5.4452 L 8.9090909,112 H 65.5 122.09091 l 2.45454,-2.45455 C 126.07689,108.01402 127,105.94557 127,104.04545 127,101.10461 126.84608,101 122.51905,101 c -3.81772,0 -4.56213,-0.33302 -5.02944,-2.25 -0.30167,-1.2375 -0.42274,-16.875 -0.26905,-34.75 0.27291,-31.740186 0.3262,-32.5 2.27944,-32.5 1.95312,0 2.00618,0.754594 2.26378,32.195772 l 0.26378,32.195771 4.73622,0.304229 L 131.5,96.5 l 0.30111,4.6598 c 0.39315,6.08429 -1.86952,11.30181 -5.99093,13.81457 -3.21789,1.96189 -4.89936,2.01815 -60.31018,2.01815 -54.680086,0 -57.1296782,-0.0791 -60.1861781,-1.94275 z"
       id="path3884" />
    <path
       style="fill:#544aa6"
       d="m 53.026187,103.02619 c -1.765084,-1.76509 -3.589257,-2.00302 -17.25,-2.25 C 21.258729,100.51372 20.5,100.40067 20.5,98.5 c 0,-1.912559 0.757996,-2.011979 17.337346,-2.273989 16.681679,-0.263627 17.357363,-0.197445 17.866632,1.75 C 56.187318,99.824309 57.037656,100 65.5,100 c 8.462344,0 9.312682,-0.175691 9.796022,-2.023989 0.509269,-1.947445 1.184953,-2.013627 17.866632,-1.75 C 109.742,96.488021 110.5,96.587441 110.5,98.5 c 0,1.90067 -0.75873,2.01372 -15.276187,2.27619 -13.660743,0.24698 -15.484916,0.48491 -17.25,2.25 C 76.259372,104.74063 74.620231,105 65.5,105 c -9.120231,0 -10.759372,-0.25937 -12.473813,-1.97381 z"
       id="path3882" />
    <path
       id="path3878"
       style="fill:#544aa6"
       d="M 46.861186,66.441026 52.222372,60 H 76.411186 C 93.891375,60 100.93281,59.667187 101.8,58.8 c 0.86147,-0.861471 1.2,-7.48107 1.2,-23.464816 0,-20.989116 -0.11083,-22.324129 -1.93426,-23.3 -2.634575,-1.409983 -68.496905,-1.409983 -71.131481,0 C 28.110518,13.01122 28,14.346947 28,35.412739 c 0,16.838075 0.312785,22.60196 1.269619,23.396061 0.69829,0.57953 3.28579,1.19713 5.75,1.372445 L 39.5,60.5 l 0.297717,6.25 c 0.163745,3.4375 0.613745,6.223462 1,6.191026 0.386256,-0.03243 3.114817,-2.957435 6.063469,-6.5 z M 36.571429,79.428571 C 35.468783,78.325926 35,75.939394 35,71.428571 V 65 h -3.076923 c -2.067476,0 -4.035898,-0.958974 -6,-2.923077 L 23,59.153846 V 36.011182 C 23,21.345739 23.395787,12.128982 24.080491,10.8496 26.465208,6.3937168 29.827868,6 65.5,6 101.17213,6 104.53479,6.3937168 106.91951,10.8496 107.60421,12.128982 108,21.345739 108,36.011182 V 59.153846 L 105.07692,62.076923 102.15385,65 78.326923,65.002647 54.5,65.005295 47.738542,73.002647 C 44.01974,77.401191 40.339383,81 39.559971,81 38.780558,81 37.435714,80.292857 36.571429,79.428571 Z" />
    <path
       style="fill:#544aa6"
       d="M 55.208208,42.712148 C 52.893694,40.35383 51,37.65383 51,36.712148 51,34.180673 54.287151,34.612304 57,37.5 58.291745,38.875 59.843949,40 60.449342,40 61.054734,40 64.90253,36.625 69,32.5 76.310476,25.140406 80,23.218416 80,26.76975 80,28.616964 62.225486,47 60.439419,47 59.876767,47 57.522722,45.070467 55.208208,42.712148 Z"
       id="path3870" />
  </g>
</svg>
