
<svg
   xmlns:dc="http://purl.org/dc/elements/1.1/"
   xmlns:cc="http://creativecommons.org/ns#"
   xmlns:rdf="http://www.w3.org/1999/02/22-rdf-syntax-ns#"
   xmlns:svg="http://www.w3.org/2000/svg"
   xmlns="http://www.w3.org/2000/svg"
   xmlns:sodipodi="http://sodipodi.sourceforge.net/DTD/sodipodi-0.dtd"
   xmlns:inkscape="http://www.inkscape.org/namespaces/inkscape"
   version="1.1"
   id="svg3754"
   width="91"
   height="117"
   viewBox="0 0 91 117"
   sodipodi:docname="sobre3.svg"
   inkscape:version="0.92.0 r15299">
  <metadata
     id="metadata3760">
    <rdf:RDF>
      <cc:Work
         rdf:about="">
        <dc:format>image/svg+xml</dc:format>
        <dc:type
           rdf:resource="http://purl.org/dc/dcmitype/StillImage" />
        <dc:title />
      </cc:Work>
    </rdf:RDF>
  </metadata>
  <defs
     id="defs3758" />
  <sodipodi:namedview
     pagecolor="#ffffff"
     bordercolor="#666666"
     borderopacity="1"
     objecttolerance="10"
     gridtolerance="10"
     guidetolerance="10"
     inkscape:pageopacity="0"
     inkscape:pageshadow="2"
     inkscape:window-width="1920"
     inkscape:window-height="1017"
     id="namedview3756"
     showgrid="false"
     inkscape:zoom="2.017094"
     inkscape:cx="-41.506356"
     inkscape:cy="58.5"
     inkscape:window-x="-8"
     inkscape:window-y="-8"
     inkscape:window-maximized="1"
     inkscape:current-layer="svg3754" />
  <g
     id="g3764"
     transform="translate(-0.49576232,-1.5042373)">
    <path
       style="fill:#544aa6"
       d="m 13.486694,102.98611 c -2.581238,-2.69423 -2.726568,-3.174807 -1.370249,-4.531126 1.356319,-1.356319 1.715377,-1.2983 3.385385,0.547038 l 1.868146,2.064278 5.149276,-5.085313 c 4.591829,-4.53479 5.293484,-4.911552 6.48136,-3.480249 1.157153,1.394283 0.559251,2.386045 -4.55296,7.552162 -3.236775,3.27091 -6.377441,5.9471 -6.979257,5.9471 -0.601817,0 -2.393582,-1.35625 -3.981701,-3.01389 z"
       id="path3850" />
    <path
       style="fill:#544aa6"
       d="m 13.53464,84.036156 c -2.404413,-2.509666 -2.639942,-3.204348 -1.537001,-4.533311 1.172317,-1.412556 1.517751,-1.367289 3.455113,0.452768 l 2.152572,2.022236 4.405546,-4.488925 c 4.462836,-4.547298 6.319804,-5.380933 7.550518,-3.389596 C 30.290386,75.278871 19.303088,87 17.468395,87 16.866578,87 15.096388,85.66627 13.53464,84.036156 Z"
       id="path3842" />
    <path
       style="fill:#544aa6"
       d="m 13.493684,64.993407 c -2.199045,-2.295307 -2.603758,-3.283333 -1.71072,-4.176371 0.893038,-0.893038 1.608003,-0.773191 3.022148,0.506593 2.651511,2.399585 3.27975,2.184532 8.167654,-2.795879 3.462965,-3.528505 4.678826,-4.231866 5.761758,-3.333113 1.11648,0.926596 0.295583,2.227488 -4.39967,6.972251 C 21.160118,65.375099 18.070211,68 17.468395,68 16.866578,68 15.077958,66.647033 13.493684,64.993407 Z"
       id="path3834" />
    <path
       style="fill:#544aa6"
       d="M 14.072455,47.407513 C 12.382605,45.985598 11,44.213773 11,43.470123 c 0,-2.437004 2.105152,-2.719966 4.374528,-0.587998 l 2.226473,2.091663 4.912839,-4.98784 c 4.366969,-4.433635 5.079506,-4.821173 6.41284,-3.48784 1.333333,1.333334 0.948517,2.064013 -3.46334,6.576117 -6.97852,7.137086 -7.722436,7.420084 -11.390885,4.333288 z"
       id="path3826" />
    <path
       id="path3816"
       style="fill:#544aa6"
       d="m 11,15 c 0,-1.757576 0.666667,-2 5.5,-2 4.833333,0 5.5,0.242424 5.5,2 0,1.757576 -0.666667,2 -5.5,2 C 11.666667,17 11,16.757576 11,15 Z m 0,7 c 0,-1.888889 0.666667,-2 12,-2 11.333333,0 12,0.111111 12,2 0,1.888889 -0.666667,2 -12,2 C 11.666667,24 11,23.888889 11,22 Z M 50.710251,40 C 50.204513,38.066056 50.679569,38 65.09362,38 79.333333,38 80,38.089447 80,40 80,41.9073 79.333333,42 65.616631,42 52.074267,42 51.202682,41.883059 50.710251,40 Z M 35.446176,41.112843 C 35.200779,40.867446 35,40.066667 35,39.333333 35,38.383838 36.583333,38 40.5,38 c 4.802236,0 5.5,0.2495 5.5,1.966642 0,1.720781 -0.631806,1.943247 -5.053824,1.779509 -2.779603,-0.102922 -5.254603,-0.387911 -5.5,-0.633308 z M 35,47 c 0,-1.893333 0.666667,-2 12.5,-2 11.833333,0 12.5,0.106667 12.5,2 0,1.893333 -0.666667,2 -12.5,2 C 35.666667,49 35,48.893333 35,47 Z m 16,11 c 0,-1.908046 0.666667,-2 14.5,-2 13.833333,0 14.5,0.09195 14.5,2 0,1.908046 -0.666667,2 -14.5,2 C 51.666667,60 51,59.908046 51,58 Z m -16,0 c 0,-1.757576 0.666667,-2 5.5,-2 4.833333,0 5.5,0.242424 5.5,2 0,1.757576 -0.666667,2 -5.5,2 C 35.666667,60 35,59.757576 35,58 Z m 0,7 c 0,-1.893333 0.666667,-2 12.5,-2 11.833333,0 12.5,0.106667 12.5,2 0,1.893333 -0.666667,2 -12.5,2 C 35.666667,67 35,66.893333 35,65 Z m 16,12 c 0,-1.908046 0.666667,-2 14.5,-2 13.833333,0 14.5,0.09195 14.5,2 0,1.908046 -0.666667,2 -14.5,2 C 51.666667,79 51,78.908046 51,77 Z m -16,0 c 0,-1.757576 0.666667,-2 5.5,-2 4.833333,0 5.5,0.242424 5.5,2 0,1.757576 -0.666667,2 -5.5,2 C 35.666667,79 35,78.757576 35,77 Z m 0,7 c 0,-1.893333 0.666667,-2 12.5,-2 11.833333,0 12.5,0.106667 12.5,2 0,1.893333 -0.666667,2 -12.5,2 C 35.666667,86 35,85.893333 35,84 Z m 16,12 c 0,-1.908046 0.666667,-2 14.5,-2 13.833333,0 14.5,0.09195 14.5,2 0,1.908046 -0.666667,2 -14.5,2 C 51.666667,98 51,97.908046 51,96 Z m -16,0 c 0,-1.757576 0.666667,-2 5.5,-2 4.833333,0 5.5,0.242424 5.5,2 0,1.757576 -0.666667,2 -5.5,2 C 35.666667,98 35,97.757576 35,96 Z m 0,7 c 0,-1.89333 0.666667,-2 12.5,-2 11.833333,0 12.5,0.10667 12.5,2 0,1.89333 -0.666667,2 -12.5,2 C 35.666667,105 35,104.89333 35,103 Z" />
    <path
       id="path3766"
       style="fill:#544aa6"
       d="M 83,25.450224 C 83,24.545105 68.710355,10 67.821132,10 67.36951,10 67,13.6 67,18 v 8 h 8 c 4.4,0 8,-0.247399 8,-0.549776 z M 86.761067,71.281831 87.022134,30.063662 75.261067,29.781831 63.5,29.5 63.218134,17.734946 62.936269,5.9698922 33.718134,6.2349461 4.5,6.5 4.2399726,58.5 c -0.1430151,28.6 -0.042697,52.56756 0.2229284,53.26124 0.3800238,0.99243 9.17375,1.20556 41.260027,1 L 86.5,112.5 Z M 1.2,115.8 C -0.53160198,114.0684 -0.53160198,4.931602 1.2,3.2 2.0826434,2.3173566 10.747651,2 33.964428,2 H 65.528857 L 78.264428,14.763904 91,27.527809 V 71.063904 C 91,103.59198 90.696582,114.90342 89.8,115.8 c -1.725945,1.72595 -86.8740545,1.72595 -88.6,0 z" />
  </g>
</svg>
