
<svg
   xmlns:dc="http://purl.org/dc/elements/1.1/"
   xmlns:cc="http://creativecommons.org/ns#"
   xmlns:rdf="http://www.w3.org/1999/02/22-rdf-syntax-ns#"
   xmlns:svg="http://www.w3.org/2000/svg"
   xmlns="http://www.w3.org/2000/svg"
   xmlns:sodipodi="http://sodipodi.sourceforge.net/DTD/sodipodi-0.dtd"
   xmlns:inkscape="http://www.inkscape.org/namespaces/inkscape"
   version="1.1"
   id="svg3887"
   width="109"
   height="119"
   viewBox="0 0 109 119"
   sodipodi:docname="sobre4.svg"
   inkscape:version="0.92.0 r15299">
  <metadata
     id="metadata3893">
    <rdf:RDF>
      <cc:Work
         rdf:about="">
        <dc:format>image/svg+xml</dc:format>
        <dc:type
           rdf:resource="http://purl.org/dc/dcmitype/StillImage" />
        <dc:title />
      </cc:Work>
    </rdf:RDF>
  </metadata>
  <defs
     id="defs3891" />
  <sodipodi:namedview
     pagecolor="#ffffff"
     bordercolor="#666666"
     borderopacity="1"
     objecttolerance="10"
     gridtolerance="10"
     guidetolerance="10"
     inkscape:pageopacity="0"
     inkscape:pageshadow="2"
     inkscape:window-width="1920"
     inkscape:window-height="1017"
     id="namedview3889"
     showgrid="false"
     inkscape:zoom="1.9831933"
     inkscape:cx="-33.993643"
     inkscape:cy="59.500001"
     inkscape:window-x="-8"
     inkscape:window-y="-8"
     inkscape:window-maximized="1"
     inkscape:current-layer="svg3887" />
  <g
     id="g3897">
    <path
       id="path3931"
       style="fill:#554ba7"
       d="m 104.98059,105.25 c -0.0107,-0.4125 -0.002,-21.118228 0.0191,-46.012728 C 105.04223,9.2314234 105.11794,9.8718798 98.701451,5.9595155 95.66365,4.1072596 93.40418,4.0074761 54.5,4.0074761 c -38.90418,0 -41.16365,0.099784 -44.201451,1.9520394 C 6.1578742,8.4842326 4,12.762585 4,18.447459 c 0,3.791732 0.5812169,5.190117 3.5,8.420861 5.726539,6.338594 3.970804,8.802484 -2.0104027,2.821277 C -2.3582947,21.841705 -0.74455029,8.7354589 8.8004065,2.8004065 L 12.5,0.5 h 42 42 l 3.69959,2.3004065 c 2.03478,1.2652236 4.73478,3.9652236 6,6 2.29689,3.6939255 2.30087,3.7670935 2.59807,47.7591365 C 109.08689,99.37168 108.71514,106 106.02475,106 c -0.56361,0 -1.03348,-0.3375 -1.04416,-0.75 z m -84.205449,3.20235 c -1.498672,-0.81943 -3.186172,-2.35185 -3.75,-3.40537 C 16.367898,103.81891 16,86.749136 16,57.482408 16,9.8918008 15.794098,7.7451491 12,15.780093 10.431665,19.101431 8,20.116802 8,17.45034 8,12.824168 14.900619,6.5844774 17.939643,8.4626973 18.662098,8.9091989 19,23.882004 19,55.448233 c 0,44.110143 0.09152,46.443327 1.909811,48.690987 1.879513,2.32333 2.237483,2.36566 22.564083,2.66853 15.432898,0.22996 20.553989,0.60915 20.257586,1.5 -0.648814,1.95003 -39.415709,2.08053 -42.956339,0.1446 z" />
    <path
       id="path3927"
       style="fill:#554ba7"
       d="m 91.225694,96.183477 c 0.949132,-0.929732 2.014277,-3.13333 2.366988,-4.896885 0.542554,-2.712773 0.15521,-3.692546 -2.515759,-6.363515 C 88.417424,82.263578 87.413985,81.863738 84.709936,82.386025 80.631711,83.173734 78,86.324612 78,90.419654 c 0,7.299332 8.068487,10.815616 13.225694,5.763823 z M 80.320985,100.38671 C 77.19841,98.846786 74,93.844125 74,90.5 74,87.390495 76.996722,82.433152 79.92045,80.706063 87.379154,76.300098 97,81.816986 97,90.5 c 0,5.88501 -5.512268,11.53355 -11.20034,11.47723 -1.264813,-0.0125 -3.730217,-0.72826 -5.478675,-1.59052 z m 11.752406,12.24156 C 88.990804,107.24047 88.188082,104 89.936015,104 c 0.514809,0 1.947672,1.8 3.184141,4 2.431813,4.32683 2.63337,4.45082 4.879844,3.00194 1.29797,-0.83714 1.184562,-1.52305 -0.84201,-5.09268 -1.670736,-2.94285 -2.033792,-4.43346 -1.266667,-5.20058 1.308046,-1.308049 1.166095,-1.45339 5.057147,5.17789 3.34954,5.70843 3.38455,8.11343 0.1181,8.11343 -1.097912,0 -2.477868,0.9 -3.06657,2 -1.621279,3.02939 -2.574552,2.48706 -5.926609,-3.37173 z m -18.594732,3.34815 C 72.49491,114.88939 70.886327,114 69.904029,114 c -0.982297,0 -2.067469,-0.45543 -2.411493,-1.01208 -0.618449,-1.00067 4.819528,-11.44472 6.499666,-12.4831 1.969578,-1.217267 1.946732,1.69456 -0.04391,5.59654 -1.722362,3.3761 -1.87234,4.33158 -0.78782,5.01898 2.155507,1.36623 2.592672,1.09119 4.959684,-3.12034 2.282524,-4.0612 3.289165,-4.76476 4.353465,-3.04268 0.575165,0.93063 -4.891289,11.56475 -6.435415,12.51907 -0.424002,0.26204 -1.575798,-0.41294 -2.559547,-1.49997 z" />
    <path
       id="path3899"
       style="fill:#554ba7"
       d="M 70.693853,30.36052 C 69.483647,29.150314 71.123538,28 74.059017,28 76.006557,28 77,28.506689 77,29.5 c 0,1.51241 -4.975336,2.191331 -6.306147,0.86052 z M 47,29.53753 C 47,28.261116 48.627527,28 56.583333,28 c 7.22092,0 9.481222,0.308141 9.16911,1.25 -0.28154,0.849602 -3.351258,1.3421 -9.583333,1.537526 C 48.461325,31.029227 47,30.830009 47,29.537526 Z M 32,29.5 c 0,-1.133333 1.222222,-1.5 5,-1.5 3.777778,0 5,0.366667 5,1.5 0,1.133333 -1.222222,1.5 -5,1.5 -3.777778,0 -5,-0.366667 -5,-1.5 z m 35,12 c 0,-1.242424 1.888889,-1.5 11,-1.5 9.111111,0 11,0.257576 11,1.5 0,1.242424 -1.888889,1.5 -11,1.5 -9.111111,0 -11,-0.257576 -11,-1.5 z m -35,0.02673 C 32,40.225236 34.225211,40 47.083333,40 c 11.621568,0 14.987986,0.286887 14.667893,1.25 -0.301431,0.906963 -4.440742,1.325944 -15.083333,1.526733 C 34.061445,43.014574 32,42.838897 32,41.526733 Z M 78.457927,53.931927 C 77.245489,51.970159 80.231322,50.971232 86.5,51.241406 c 4.551736,0.196175 6,0.62066 6,1.758594 0,1.909458 -12.90846,2.766149 -14.042073,0.931925 z m -27.027025,-0.04373 c -1.254504,-2.029829 1.97086,-2.857407 11.196653,-2.872884 6.431447,-0.01079 9.456542,0.381091 10.241324,1.326696 0.612573,0.738105 0.817673,1.638105 0.455778,2 -1.161818,1.161818 -21.151318,0.747477 -21.893755,-0.453812 z M 32,53.564742 c 0,-1.835288 2.931148,-2.579059 9,-2.283728 3.236006,0.157476 4.5,0.640317 4.5,1.718986 0,1.155981 -1.548084,1.567815 -6.75,1.79569 C 33.235196,55.037271 32,54.812017 32,53.564742 Z M 63.713013,66.37968 C 63.320856,65.987523 63,65.066667 63,64.333333 63,63.30303 65.5,63 74,63 c 8.735625,0 11,0.286755 11,1.393011 0,0.766156 -0.5625,1.606656 -1.25,1.867777 -2.066904,0.785035 -19.268774,0.887105 -20.036987,0.118892 z M 33.25,66.35328 C 32.5625,66.067309 32,65.182389 32,64.38679 32,63.185734 34.163756,62.987743 44.75,63.220123 55.292277,63.451538 57.5,63.759732 57.5,65 c 0,1.235559 -2.027384,1.532899 -11.5,1.686613 -6.325,0.102638 -12.0625,-0.04736 -12.75,-0.333333 z m 6.301863,26.730636 c -0.311394,-0.503846 -0.112952,-2.108141 0.440983,-3.5651 1.287212,-3.385625 1.304481,-10.217024 0.02782,-11.006043 -0.538634,-0.332894 -1.888634,-0.118619 -3,0.476167 -2.226787,1.19174 -2.673671,5.16333 -1.058878,9.410559 1.044569,2.747424 -0.352307,4.609983 -2.126657,2.835633 -1.57976,-1.57976 -2.707662,-8.06476 -1.917229,-11.023323 0.911652,-3.412286 4.8672,-5.733545 8.301464,-4.871599 3.008462,0.755075 4.836478,4.916824 4.024773,9.162987 -0.440673,2.305233 -0.242936,2.710319 1.075958,2.204211 0.888719,-0.341033 1.872711,-0.204453 2.18665,0.303511 0.31394,0.507964 1.929407,0.65185 3.589928,0.319746 2.510124,-0.502025 3.113328,-0.243612 3.577858,1.532754 C 55.106285,90.514437 56.002173,91 58.616631,91 60.957403,91 62,91.46223 62,92.5 c 0,1.94508 -10.584214,2.179417 -11.291667,0.25 -0.366666,-1 -0.723333,-1 -1.783333,0 C 47.055241,94.513924 45,94.301861 45,92.345012 c 0,-1.539983 -0.127078,-1.539983 -1.828741,0 -2.085783,1.887609 -2.817176,2.036923 -3.619396,0.738904 z" />
  </g>
</svg>
