
<svg
   xmlns:dc="http://purl.org/dc/elements/1.1/"
   xmlns:cc="http://creativecommons.org/ns#"
   xmlns:rdf="http://www.w3.org/1999/02/22-rdf-syntax-ns#"
   xmlns:svg="http://www.w3.org/2000/svg"
   xmlns="http://www.w3.org/2000/svg"
   xmlns:sodipodi="http://sodipodi.sourceforge.net/DTD/sodipodi-0.dtd"
   xmlns:inkscape="http://www.inkscape.org/namespaces/inkscape"
   version="1.1"
   id="svg3690"
   width="110"
   height="119"
   viewBox="0 0 110 119"
   sodipodi:docname="sobre2.svg"
   inkscape:version="0.92.0 r15299">
  <metadata
     id="metadata3696">
    <rdf:RDF>
      <cc:Work
         rdf:about="">
        <dc:format>image/svg+xml</dc:format>
        <dc:type
           rdf:resource="http://purl.org/dc/dcmitype/StillImage" />
        <dc:title />
      </cc:Work>
    </rdf:RDF>
  </metadata>
  <defs
     id="defs3694" />
  <sodipodi:namedview
     pagecolor="#ffffff"
     bordercolor="#666666"
     borderopacity="1"
     objecttolerance="10"
     gridtolerance="10"
     guidetolerance="10"
     inkscape:pageopacity="0"
     inkscape:pageshadow="2"
     inkscape:window-width="1920"
     inkscape:window-height="1017"
     id="namedview3692"
     showgrid="false"
     inkscape:zoom="1.9831933"
     inkscape:cx="-33.493643"
     inkscape:cy="59.500001"
     inkscape:window-x="-8"
     inkscape:window-y="-8"
     inkscape:window-maximized="1"
     inkscape:current-layer="svg3690" />
  <g
     id="g3700"
     transform="translate(0.5720295,-0.470339)">
    <path
       id="path3746"
       style="fill:#5247a6"
       d="m 93,110.92668 c 0,-1.4311 0.538516,-1.96962 1.738516,-1.73852 C 97.345253,109.69017 97.635967,113 95.073324,113 93.642225,113 93,112.35777 93,110.92668 Z m 6.342101,6.52244 c -0.343083,-0.89406 0.379303,-2.58812 1.705699,-4 L 103.34863,111 101.17431,108.68555 C 98.525557,105.86608 98.381623,104 100.81291,104 102.96978,104 108,108.97526 108,111.10855 108,112.60511 102.0609,119 100.67101,119 c -0.40358,0 -1.001588,-0.6979 -1.328909,-1.55088 z m -74.840154,-2.44713 -3.901036,-3.99502 3.395711,-3.50348 C 25.864263,105.57657 27.979059,104 28.696167,104 c 1.661928,0 1.70022,2.62542 0.05383,3.69098 C 28.0625,108.13594 41,108.725 57.5,109 c 25.777778,0.42963 30,0.71111 30,2 0,1.29378 -4.089855,1.53642 -29.749182,1.76488 -29.265056,0.26057 -29.72926,0.29678 -28.52504,2.22504 0.834807,1.33674 0.89863,2.28567 0.200673,2.98363 -0.697957,0.69796 -2.26418,-0.24714 -4.924504,-2.97156 z" />
    <path
       style="fill:#5247a6"
       d="M 3.9881962,95.487973 C 0.3044462,91.734505 -0.08556657,90.970065 1.3935952,90.402458 2.351057,90.035045 3.644187,90.244187 4.2672174,90.867217 4.8902478,91.490248 5.76,92 6.2,92 6.64,92 7,73.775 7,51.5 7,29.225 6.64,11 6.2,11 5.76,11 4.8902478,11.509752 4.2672174,12.132783 3.644187,12.755813 2.351057,12.964955 1.3935952,12.597542 -0.08427012,12.030432 0.31497465,11.254767 4.0365191,7.4627898 L 8.4202826,2.9960602 12.705999,7.2021726 c 2.915408,2.8612564 3.959322,4.5325064 3.264899,5.2269294 -0.694422,0.694422 -1.647975,0.62915 -2.982289,-0.204143 C 11.9098,11.551232 10.796032,11 10.513569,11 10.231106,11 10,29.225 10,51.5 10,73.775 10.36,92 10.8,92 c 0.44,0 1.309752,-0.509752 1.932783,-1.132783 0.62303,-0.62303 1.865938,-0.851444 2.762017,-0.507586 1.382141,0.530377 1.430251,0.908182 0.317218,2.491078 -0.72161,1.026234 -2.7017,3.033378 -4.4002,4.460318 l -3.0881812,2.594438 z"
       id="path3744" />
    <path
       id="path3702"
       style="fill:#5247a6"
       d="M 67.5,11 V 7.5 h -6 c -5.516766,0 -6.026504,0.1870699 -6.329081,2.322726 -0.642272,4.533294 0.369884,5.300472 6.566985,4.977539 L 67.5,14.5 Z m -16,0 V 7.5 L 38.25,7.2209749 25,6.9419497 V 11 15.05805 L 38.25,14.779025 51.5,14.5 Z M 67.768774,41.25 67.5,18.5 46.25,18.230112 25,17.960225 V 40.980112 64 H 46.518774 68.037549 Z M 105,71.475821 V 46.951642 L 88.25,47.225821 71.5,47.5 71.232221,71.75 70.964443,96 H 87.982221 105 Z M 68,82 V 68 H 54.5 41 V 82 96 H 54.5 68 Z M 37,82 V 68 h -6 -6 v 14 14 h 6 6 z M 21.677156,99.343823 C 21.30472,98.971387 21,77.366667 21,51.333333 V 4 H 45.97886 70.95772 L 71.22886,23.75 71.5,43.5 90,44 108.5,44.5 V 72 99.5 l -43.072844,0.26049 c -23.690064,0.143269 -43.377564,-0.04423 -43.75,-0.416667 z" />
  </g>
</svg>
