<svg
   xmlns:dc="http://purl.org/dc/elements/1.1/"
   xmlns:cc="http://creativecommons.org/ns#"
   xmlns:rdf="http://www.w3.org/1999/02/22-rdf-syntax-ns#"
   xmlns:svg="http://www.w3.org/2000/svg"
   xmlns="http://www.w3.org/2000/svg"
   xmlns:sodipodi="http://sodipodi.sourceforge.net/DTD/sodipodi-0.dtd"
   xmlns:inkscape="http://www.inkscape.org/namespaces/inkscape"
   version="1.1"
   id="svg170"
   width="174"
   height="174"
   viewBox="0 0 174 174"
   sodipodi:docname="tipo3.svg"
   inkscape:version="0.92.0 r15299">
  <metadata
     id="metadata176">
    <rdf:RDF>
      <cc:Work
         rdf:about="">
        <dc:format>image/svg+xml</dc:format>
        <dc:type
           rdf:resource="http://purl.org/dc/dcmitype/StillImage" />
        <dc:title></dc:title>
      </cc:Work>
    </rdf:RDF>
  </metadata>
  <defs
     id="defs174" />
  <sodipodi:namedview
     pagecolor="#ffffff"
     bordercolor="#666666"
     borderopacity="1"
     objecttolerance="10"
     gridtolerance="10"
     guidetolerance="10"
     inkscape:pageopacity="0"
     inkscape:pageshadow="2"
     inkscape:window-width="1920"
     inkscape:window-height="1017"
     id="namedview172"
     showgrid="false"
     inkscape:zoom="1.3563218"
     inkscape:cx="87"
     inkscape:cy="87"
     inkscape:window-x="-8"
     inkscape:window-y="-8"
     inkscape:window-maximized="1"
     inkscape:current-layer="svg170" />
  <path
     class="e1"
     id="path276"
     style="fill:#fefefe"
     d="m 19.252764,131.01582 c 7.436149,-5.84928 0.811573,-17.18504 -7.901816,-13.52134 -5.849298,2.45945 -6.510815,10.17885 -1.19156,13.90461 3.059825,2.14318 6.041263,2.01752 9.093376,-0.38327 z M 166.59196,141.5 c 1.51741,-2.31587 1.51741,-2.68413 0,-5 -2.06547,-3.15229 -5.92823,-3.28569 -8.03526,-0.27749 -1.96588,2.80669 -1.9625,4.22883 0.0147,6.20606 2.38079,2.38079 6.1371,1.9459 8.02053,-0.92857 z m -77.0465,6.04545 C 94.42608,142.66483 90.99504,134 84.18182,134 80.31601,134 76,138.31601 76,142.18182 76,146.10584 79.98472,150 84,150 c 1.94837,0 3.99822,-0.90731 5.54546,-2.45455 z M 0,171 c 0,-2.9697 0.05556,-3 5.5,-3 H 11 L 10.97836,153.75 10.95672,139.5 7.737832,138 c -6.858564,-3.19609 -10.003279,-13.71842 -6.262071,-20.95312 4.820716,-9.32223 21.227772,-9.32223 26.048488,0 3.741209,7.2347 0.596493,17.75703 -6.262071,20.95312 L 18.04329,139.5 18.02165,153.75 18,168 H 49.5 81 v -5.48658 c 0,-5.2788 -0.12691,-5.53961 -3.35134,-6.88686 -7.41222,-3.09702 -10.62526,-12.83178 -6.7454,-20.43694 2.76927,-5.4282 8.66076,-8.61158 14.68157,-7.93295 14.91579,1.68123 18.44437,21.08173 5.13691,28.24333 -3.56183,1.91685 -3.71645,2.21826 -3.71904,7.25 L 87,168 h 36 36 v -8.44346 c 0,-8.31099 -0.0468,-8.47112 -2.98384,-10.20607 C 153.0371,147.5907 150,142.65165 150,139.56675 c 0,-3.46164 3.02357,-8.6107 6.18982,-10.54112 3.93592,-2.39966 7.84573,-2.57573 11.79914,-0.53134 4.30337,2.22536 6.01104,5.31711 6.01104,10.88305 0,4.45354 -0.38829,5.30171 -4,8.73744 l -4,3.80511 V 159.95994 168 h 4 c 3.77778,0 4,0.16667 4,3 v 3 H 87 0 Z"
     inkscape:connector-curvature="0" />
  <path
     class="e2"
     id="path228"
     style="fill:#fefefe"
     d="m 35.23832,103.83832 c -1.805479,-1.80548 -1.567451,-9.320276 0.3455,-10.907887 2.91514,-2.419345 4.91618,0.09553 4.91618,6.178557 0,4.63923 -0.28053,5.43122 -2.01168,5.67933 -1.10642,0.15858 -2.56892,-0.26892 -3.25,-0.95 z m -11.529471,0.5372 C 23.318982,103.98565 23,101.31481 23,98.44032 c 0,-5.412842 1.27768,-7.038467 4.546183,-5.784224 1.193982,0.458174 1.478716,1.874693 1.25,6.218614 -0.251876,4.78378 -0.601526,5.669 -2.337334,5.91747 -1.122633,0.1607 -2.360133,-0.0268 -2.75,-0.41666 z m 10.918901,16.09679 c -0.89425,-2.33037 -0.748789,-7.73304 0.25065,-9.3098 0.46628,-0.73562 1.92189,-1.18562 3.23469,-1 C 40.29874,110.47154 40.5,110.96375 40.5,116 c 0,5.19107 -0.14729,5.51708 -2.62225,5.8041 -1.70869,0.19815 -2.84096,-0.26583 -3.25,-1.33179 z m 0.43359,18.10159 c -1.668653,-2.01059 -0.93063,-9.63891 1.05274,-10.8812 C 39.23074,125.74055 41,127.57861 41,132.76862 c 0,6.42946 -2.9927,9.35495 -5.93866,5.80528 z m 11.60533,23.75943 C 46.3,161.96667 46,144.86667 46,124.33333 V 87 H 32 18 v 7.877555 c 0,8.623805 -1.500164,11.558285 -4.833823,9.455465 C 11.777599,103.45713 11.5,101.46749 11.5,92.391014 V 81.5 l 19.927552,-0.271733 c 15.274088,-0.208277 20.116028,0.02524 20.734688,1 1.3796,2.173719 1.03361,78.175883 -0.36224,79.571733 -1.30743,1.30743 -4.072,1.59466 -5.13333,0.53333 z m -11.54985,-0.69257 c -0.77001,-0.9278 -1.10094,-4.11867 -0.9125,-8.79826 L 34.5,145.5 h 3 3 v 8.5 c 0,7.85685 -0.15795,8.52257 -2.0875,8.79826 -1.14813,0.16404 -2.63119,-0.35684 -3.29568,-1.1575 z m -11.407971,0.73476 C 23.318982,161.98565 23,157.91667 23,153.33333 V 145 h 3.038933 3.038933 l -0.288933,8.75 c -0.262011,7.93469 -0.479123,8.77722 -2.330084,9.04218 -1.122633,0.1607 -2.360133,-0.0268 -2.75,-0.41666 z"
     inkscape:connector-curvature="0" />
  <path
     class="e3"
     id="path204"
     style="fill:#fefefe"
     d="m 116.2001,81.25 c 0.28095,-5.386692 0.45786,-5.75 2.7999,-5.75 2.34204,0 2.51895,0.363308 2.7999,5.75 L 122.09981,87 H 119 115.90019 Z m -11.48752,5.129243 C 104.32066,85.987326 104,83.477544 104,80.801949 c 0,-3.581344 0.43158,-5.03033 1.63592,-5.492481 3.1031,-1.19077 4.86408,1.089894 4.86408,6.299518 0,4.491906 -0.20705,4.91516 -2.53742,5.186924 -1.39559,0.16275 -2.85809,-0.02475 -3.25,-0.416667 z m -12,0 C 92.32066,85.987326 92,83.771767 92,81.455778 c 0,-4.53197 1.73418,-6.8462 4.70196,-6.274659 1.47015,0.283126 1.79804,1.346738 1.79804,5.832576 0,5.129224 -0.16515,5.505565 -2.53742,5.782215 -1.39559,0.16275 -2.85809,-0.02475 -3.25,-0.416667 z m 23.99627,17.996267 C 116.31898,103.98565 116,101.31481 116,98.44032 c 0,-5.412842 1.27768,-7.038467 4.54618,-5.784224 1.19399,0.458174 1.47872,1.874693 1.25,6.218614 -0.25187,4.78378 -0.60152,5.669 -2.33733,5.91747 -1.12263,0.1607 -2.36013,-0.0268 -2.75,-0.41666 z m -12.04218,-0.0422 C 104.3,103.96667 104,101.54677 104,98.95578 c 0,-5.397896 2.0355,-8.049089 4.83382,-6.295947 2.03309,1.273723 2.80198,8.869147 1.10484,10.914067 -1.23601,1.48931 -4.12584,1.90559 -5.27199,0.75943 z M 93.23832,103.8383 c -1.80548,-1.80546 -1.56745,-9.320256 0.3455,-10.907867 2.91514,-2.419345 4.91618,0.09553 4.91618,6.178557 0,4.63923 -0.28053,5.43122 -2.01168,5.67933 -1.10642,0.15858 -2.56892,-0.26892 -3.25,-0.95 z M 116,116 c 0,-6.10042 0.0145,-6.13117 2.75,-5.81642 2.62831,0.30242 2.75,0.5598 2.75,5.81642 0,5.25662 -0.12169,5.514 -2.75,5.81642 -2.73546,0.31475 -2.75,0.284 -2.75,-5.81642 z m -11.59447,4.6144 c -0.29244,-0.76207 -0.39082,-3.34957 -0.21862,-5.75 0.26763,-3.73066 0.65969,-4.41341 2.7,-4.70189 1.3128,-0.18562 2.76841,0.26438 3.23469,1 0.98931,1.56078 1.14797,6.97142 0.27141,9.2557 -0.74771,1.9485 -5.25834,2.0963 -5.98748,0.19619 z m -11.77778,-0.14209 c -0.89425,-2.33037 -0.74879,-7.73304 0.25065,-9.3098 0.46628,-0.73562 1.92189,-1.18562 3.23469,-1 C 98.29874,110.47154 98.5,110.96375 98.5,116 c 0,5.19107 -0.14729,5.51708 -2.62225,5.8041 -1.70869,0.19815 -2.84096,-0.26583 -3.25,-1.33179 z m 23.78105,18.15063 c -0.29063,-0.75738 -0.38901,-3.56988 -0.21861,-6.25 C 116.47302,127.92442 116.71774,127.5 119,127.5 c 2.32039,0 2.5221,0.38835 2.80765,5.40535 0.20758,3.64725 -0.11767,5.6751 -1,6.23469 -1.96253,1.24467 -3.80595,1.02797 -4.39885,-0.5171 z M 105.2,138.8 c -1.8837,-1.8837 -1.54813,-10.72918 0.43592,-11.49053 2.81254,-1.07927 4.84429,1.12565 5.17519,5.61628 0.43406,5.89061 -2.51128,8.97408 -5.61111,5.87425 z m 23,23 C 127.30177,160.90177 127,149.13867 127,115.02403 V 69.448058 L 107.75,64.701006 C 97.1625,62.090127 88.1625,59.964314 87.75,59.976977 87.3375,59.989639 87,73.97989 87,91.066422 V 122.13284 L 84.25,121.81642 81.5,121.5 81.23684,87.223665 C 80.99482,55.699961 81.11063,52.894779 82.67894,52.29296 84.50977,51.590406 130.66587,62.623816 132.75,64.262222 133.71878,65.023814 134,75.971157 134,112.92244 134,161.04505 133.86337,163 130.5,163 c -0.605,0 -1.64,-0.54 -2.3,-1.2 z m -11.49115,0.57553 C 116.31898,161.98565 116,157.91667 116,153.33333 V 145 h 3.03893 3.03894 l -0.28894,8.75 c -0.26201,7.93469 -0.47912,8.77722 -2.33008,9.04218 -1.12263,0.1607 -2.36013,-0.0268 -2.75,-0.41666 z m -12.2872,-0.7191 c -0.28357,-0.73898 -0.38195,-4.67648 -0.21862,-8.75 L 104.5,145.5 h 3 3 l 0.29568,7.3425 c 0.18332,4.55244 -0.1482,7.87733 -0.87245,8.75 -1.48289,1.78678 -4.82555,1.82561 -5.50158,0.0639 z"
     inkscape:connector-curvature="0" />
  <path
     class="e4"
     id="path188"
     style="fill:#fefefe"
     d="m 128.2,51.8 c -0.66,-0.66 -1.2,-3.0799 -1.2,-5.377555 0,-8.174694 6.21196,-8.627697 6.81111,-0.496695 0.43406,5.890614 -2.51128,8.974079 -5.61111,5.87425 z m -11.7912,-0.17706 c -0.29063,-0.757383 -0.38901,-3.569883 -0.21861,-6.25 C 116.47302,40.924421 116.71774,40.5 119,40.5 c 2.32039,0 2.5221,0.388349 2.80765,5.405355 0.20758,3.647242 -0.11767,5.675099 -1,6.234687 -1.96253,1.244672 -3.80595,1.027971 -4.39885,-0.517102 z m 34.82952,52.21537 c -1.80548,-1.80548 -1.56745,-9.320276 0.3455,-10.907887 2.91514,-2.419345 4.91618,0.09553 4.91618,6.178557 0,4.63923 -0.28053,5.43122 -2.01168,5.67933 -1.10642,0.15858 -2.56892,-0.26892 -3.25,-0.95 z m -11.52947,0.5372 C 139.31898,103.98565 139,101.31481 139,98.44032 c 0,-5.412842 1.27768,-7.038467 4.54618,-5.784224 1.19399,0.458174 1.47872,1.874693 1.25,6.218614 -0.25187,4.78378 -0.60152,5.669 -2.33733,5.91747 -1.12263,0.1607 -2.36013,-0.0268 -2.75,-0.41666 z m 22.95782,16.95782 C 162.3,120.96667 162,113.63207 162,105.03422 V 89.401777 l -3.75,-1.342588 c -2.0625,-0.738424 -7.2375,-2.668215 -11.5,-4.288425 L 139,80.824927 V 55.912464 c 0,-13.701855 -0.3375,-24.921466 -0.75,-24.932468 -0.4125,-0.011 -6.69463,1.430237 -13.96028,3.202755 l -13.21029,3.22276 -0.28971,6.942477 c -0.31875,7.63815 -2.10825,10.292399 -5.2059,7.721579 -2.03569,-1.689476 -2.31926,-18.475543 -0.33382,-19.76055 0.6875,-0.444959 8.45,-2.634594 17.25,-4.865856 15.7634,-3.996847 16.00754,-4.100361 16.50982,-7 0.40415,-2.333122 1.02597,-2.943161 3,-2.943161 H 144.5 l 0.26487,29.103277 0.26487,29.103278 11.40935,4.228042 c 6.27514,2.325423 11.66845,4.903253 11.98513,5.72851 0.76892,2.003777 0.74132,32.741933 -0.0312,34.755103 -0.60359,1.57295 -4.4533,2.18817 -5.72634,0.91512 z m -12.03892,-0.86102 c -0.89425,-2.33037 -0.74879,-7.73304 0.25065,-9.3098 0.46628,-0.73562 1.92189,-1.18562 3.23469,-1 2.18565,0.30903 2.38691,0.80124 2.38691,5.83749 0,5.19107 -0.14729,5.51708 -2.62225,5.8041 -1.70869,0.19815 -2.84096,-0.26583 -3.25,-1.33179 z m -11.22222,0.14209 c -0.29244,-0.76207 -0.39082,-3.34957 -0.21862,-5.75 0.28166,-3.92626 0.58916,-4.39617 3.06309,-4.68082 2.73256,-0.31442 2.75,-0.27796 2.75,5.75 0,5.82424 -0.10106,6.06642 -2.53138,6.06642 -1.39227,0 -2.77066,-0.62352 -3.06309,-1.3856 z m 0.78682,18.5397 c -0.88116,-0.56832 -1.20731,-2.60632 -1,-6.24875 0.28555,-5.017 0.48726,-5.40535 2.80765,-5.40535 2.38825,0 2.5,0.26758 2.5,5.9863 0,6.1342 -1.17911,7.68561 -4.30765,5.6678 z m -0.4835,23.22142 C 139.31898,161.98565 139,157.91667 139,153.33333 V 145 h 3.03893 3.03894 l -0.28894,8.75 c -0.26201,7.93469 -0.47912,8.77722 -2.33008,9.04218 -1.12263,0.1607 -2.36013,-0.0268 -2.75,-0.41666 z"
     inkscape:connector-curvature="0" />
  <path
     class="e5"
     id="path182"
     style="fill:#fefefe"
     d="M 69.43123,33.681375 C 69.12466,32.882463 69.01471,30.264826 69.18691,27.864404 69.48197,23.751308 69.67274,23.5 72.5,23.5 c 2.9697,0 3,0.05556 3,5.5 0,5.259401 -0.12055,5.513866 -2.75569,5.816971 -1.7188,0.197704 -2.96541,-0.229588 -3.31308,-1.135596 z M 58,29 c 0,-6.100418 0.0145,-6.131172 2.75,-5.816422 2.62831,0.30242 2.75,0.559797 2.75,5.816422 0,5.256625 -0.12169,5.514002 -2.75,5.816422 C 58.01454,35.131172 58,35.100418 58,29 Z M 70.2,51.8 C 69.54,51.14 69,48.7201 69,46.422445 69,38.247751 75.21196,37.794748 75.81111,45.92575 76.24517,51.816364 73.29983,54.899829 70.2,51.8 Z M 58.4088,51.62294 c -0.29063,-0.757383 -0.38901,-3.569883 -0.21861,-6.25 C 58.47302,40.924421 58.71774,40.5 61,40.5 c 2.32039,0 2.5221,0.388349 2.80765,5.405355 0.20758,3.647242 -0.11767,5.675099 -1,6.234687 -1.96254,1.244672 -3.80595,1.027971 -4.39885,-0.517102 z M 69.43123,68.681375 C 69.12466,67.882463 69.01471,65.264826 69.18691,62.864404 69.48197,58.751308 69.67274,58.5 72.5,58.5 c 2.9697,0 3,0.05556 3,5.5 0,5.259401 -0.12055,5.513866 -2.75569,5.816971 -1.7188,0.197704 -2.96541,-0.229588 -3.31308,-1.135596 z M 58.70885,69.375516 C 58.31898,68.985649 58,66.266667 58,63.333333 58,58.054682 58.03127,58 61.0499,58 h 3.04991 l -0.29991,5.75 c -0.25598,4.907995 -0.5988,5.792786 -2.34105,6.042183 -1.12263,0.1607 -2.36013,-0.0268 -2.75,-0.416667 z M 46.40553,68.614404 c -0.29244,-0.762078 -0.39082,-3.349578 -0.21862,-5.75 C 46.48197,58.751308 46.67274,58.5 49.5,58.5 c 2.82282,0 3.01837,0.255368 3.31111,4.323905 0.17111,2.378148 -0.22149,4.965648 -0.87245,5.75 -1.51129,1.821001 -4.84054,1.845369 -5.53313,0.0405 z M 35.23832,74.838321 C 34.38447,73.984466 34,69.674057 34,60.954988 34,46.8411 33.915812,47.035099 41.75,43.096188 L 46,40.959352 V 27.972387 14.985422 l 8.45147,-4.191498 C 62.0476,7.0266267 62.93315,6.2936259 63.20147,3.5512124 63.46145,0.8939836 63.88737,0.5 66.5,0.5 c 2.61263,0 3.03855,0.3939836 3.29853,3.0512124 0.2684,2.7432445 1.15413,3.4755425 8.77537,7.2552916 L 87.05073,15.010583 86.77537,30.755291 86.5,46.5 H 84 81.5 l -0.27904,-13.252052 -0.27904,-13.252053 -7.15389,-3.602642 -7.15389,-3.602642 -6.7893,3.28445 -6.78929,3.28445 L 52.77777,32.429756 52.5,45.5 l -5.72118,2.993564 -5.72117,2.993565 -0.27883,12.006435 c -0.25914,11.158913 -0.42082,12.026788 -2.2905,12.294757 -1.10642,0.158576 -2.56892,-0.268924 -3.25,-0.95 z M 69.43123,85.681375 C 69.12466,84.882463 69.01471,82.264826 69.18691,79.864404 69.48197,75.751308 69.67274,75.5 72.5,75.5 c 2.9697,0 3,0.05556 3,5.5 0,5.259401 -0.12055,5.513866 -2.75569,5.816971 -1.7188,0.197704 -2.96541,-0.229588 -3.31308,-1.135596 z M 58.2001,81.25 C 58.48105,75.863308 58.65796,75.5 61,75.5 c 2.34204,0 2.51895,0.363308 2.7999,5.75 L 64.09981,87 H 61 57.90019 Z M 70.2,103.8 c -0.66,-0.66 -1.2,-3.0799 -1.2,-5.37756 0,-8.174689 6.21196,-8.627692 6.81111,-0.49669 0.43406,5.89061 -2.51128,8.97408 -5.61111,5.87425 z m -11.49115,0.57552 C 58.31898,103.98565 58,101.31481 58,98.44032 c 0,-5.412842 1.27768,-7.038467 4.54618,-5.784224 1.19399,0.458174 1.47872,1.874693 1.25,6.218614 -0.25187,4.78378 -0.60152,5.669 -2.33733,5.91747 -1.12263,0.1607 -2.36013,-0.0268 -2.75,-0.41666 z m 10.72238,16.30585 c -0.30658,-0.79891 -0.41652,-3.41654 -0.24432,-5.81697 0.29506,-4.11309 0.48583,-4.3644 3.31309,-4.3644 2.9697,0 3,0.0556 3,5.5 0,5.2594 -0.12055,5.51387 -2.75569,5.81697 -1.7188,0.19771 -2.96542,-0.22959 -3.31308,-1.1356 z M 58,116 c 0,-6.10042 0.0145,-6.13117 2.75,-5.81642 2.62831,0.30242 2.75,0.5598 2.75,5.81642 0,5.25662 -0.12169,5.514 -2.75,5.81642 C 58.01454,122.13117 58,122.10042 58,116 Z m 0.4088,22.6229 c -0.29063,-0.75738 -0.38901,-3.56988 -0.21861,-6.25 C 58.47302,127.92442 58.71774,127.5 61,127.5 c 2.32039,0 2.5221,0.38835 2.80765,5.40535 0.20758,3.64725 -0.11767,5.6751 -1,6.23469 -1.96254,1.24467 -3.80595,1.02797 -4.39885,-0.5171 z m 0.30005,23.75263 C 58.31898,161.98565 58,157.91667 58,153.33333 V 145 h 3.03893 3.03894 l -0.28894,8.75 c -0.26201,7.93469 -0.47912,8.77722 -2.33008,9.04218 -1.12263,0.1607 -2.36013,-0.0268 -2.75,-0.41666 z"
     inkscape:connector-curvature="0" />
</svg>
