
<svg
   xmlns:dc="http://purl.org/dc/elements/1.1/"
   xmlns:cc="http://creativecommons.org/ns#"
   xmlns:rdf="http://www.w3.org/1999/02/22-rdf-syntax-ns#"
   xmlns:svg="http://www.w3.org/2000/svg"
   xmlns="http://www.w3.org/2000/svg"
   xmlns:sodipodi="http://sodipodi.sourceforge.net/DTD/sodipodi-0.dtd"
   xmlns:inkscape="http://www.inkscape.org/namespaces/inkscape"
   version="1.1"
   id="svg20"
   width="174"
   height="174"
   viewBox="0 0 174 174"
   sodipodi:docname="tipo2.svg"
   inkscape:version="0.92.0 r15299">
  <metadata
     id="metadata26">
    <rdf:RDF>
      <cc:Work
         rdf:about="">
        <dc:format>image/svg+xml</dc:format>
        <dc:type
           rdf:resource="http://purl.org/dc/dcmitype/StillImage" />
        <dc:title />
      </cc:Work>
    </rdf:RDF>
  </metadata>
  <defs
     id="defs24" />
  <sodipodi:namedview
     pagecolor="#ffffff"
     bordercolor="#666666"
     borderopacity="1"
     objecttolerance="10"
     gridtolerance="10"
     guidetolerance="10"
     inkscape:pageopacity="0"
     inkscape:pageshadow="2"
     inkscape:window-width="1920"
     inkscape:window-height="1017"
     id="namedview22"
     showgrid="false"
     inkscape:zoom="1.475"
     inkscape:cx="-157.9661"
     inkscape:cy="80"
     inkscape:window-x="-8"
     inkscape:window-y="-8"
     inkscape:window-maximized="1"
     inkscape:current-layer="svg20" />
  <path
     class="f1"
     id="path90"
     style="fill:#fefefe"
     d="m 26.68105,149.54545 c 2.90126,-2.90126 3.11597,-6.944 0.99933,-18.81664 -1.37254,-7.69888 -3.96497,-13.70221 -6.24529,-14.46231 -2.86015,-0.95338 -7.24949,14.13295 -7.28213,25.02895 -0.0145,4.83326 0.39015,6.20298 2.43718,8.25 1.35,1.35 3.62045,2.45455 5.04545,2.45455 1.425,0 3.69546,-1.10455 5.04546,-2.45455 z m -7.87879,23.78788 c -0.36667,-0.36666 -0.66667,-3.86433 -0.66667,-7.77259 v -7.10593 l -3.57727,-1.92649 c -5.70789,-3.07391 -6.7456,-6.1818 -6.16447,-18.46239 0.55766,-11.78475 3.23734,-21.83566 6.84561,-25.67649 3.09646,-3.29603 9.08235,-3.29413 12.38042,0.004 4.02384,4.02384 6.8983,15.49662 6.96112,27.78376 0.0537,10.50941 0.008,10.72598 -2.9177,13.78674 -1.63476,1.71029 -3.99726,3.36686 -5.25,3.68128 -2.12957,0.53452 -2.27771,1.08496 -2.27771,8.46329 0,7.60071 -0.086,7.89159 -2.33333,7.89159 -1.28333,0 -2.63333,-0.3 -3,-0.66667 z"
     inkscape:connector-curvature="0" />
  <path
     class="f2"
     id="path123"
     style="fill:#fefefe"
     d="m 130.20817,171.36514 c -1.13992,-1.44917 -2.07258,-3.86348 -2.07258,-5.36514 0,-3.94576 3.53002,-8 6.96559,-8 1.5858,0 3.07265,-0.65727 3.39661,-1.50148 0.31689,-0.82582 2.11497,-2.23529 3.99574,-3.13217 4.35147,-2.07507 9.65536,-1.18635 12.81719,2.14764 4.91735,5.1851 4.82487,6.15332 4.82487,-50.51399 V 52 h -14.87756 c -11.94792,0 -15.12061,-0.292867 -16.11187,-1.487265 -0.67888,-0.817996 -0.9731,-2.167996 -0.65383,-3 C 128.9816,46.237725 131.98502,46 147.60421,46 h 18.53138 v 62 c 0,60.66667 -0.043,62.04301 -2,64 -1.82136,1.82136 -3.33333,2 -16.92742,2 H 132.28075 Z M 159.63559,166 c 0,-1.01377 -1.03763,-1.51115 -3.20107,-1.53441 -1.76059,-0.0189 -3.33559,-0.24392 -3.5,-0.5 -0.16441,-0.25607 -0.79432,-1.36559 -1.39979,-2.46559 -1.83368,-3.33135 -5.84076,-3.09292 -8.39898,0.49977 -1.87785,2.63721 -2.65686,3.0149 -5.10797,2.47655 -2.47657,-0.54394 -2.89219,-0.33198 -2.89219,1.475 0,2.04742 0.36466,2.10188 12.25,1.82946 10.09743,-0.23144 12.25,-0.54436 12.25,-1.78078 z M 134.8419,147.37252 c -0.38847,-0.38801 -0.70631,-5.35585 -0.70631,-11.03919 V 126 h 8.03383 8.03383 l -0.28383,10.75 -0.28383,10.75 -7.04369,0.28965 c -3.87403,0.1593 -7.36153,-0.0282 -7.75,-0.41667 z M 144.13559,137 c 0,-4.33333 -0.26667,-5 -2,-5 -1.73333,0 -2,0.66667 -2,5 0,4.33333 0.26667,5 2,5 1.73333,0 2,-0.66667 2,-5 z m -9.29369,-21.62702 c -0.38847,-0.38847 -0.70631,-5.35631 -0.70631,-11.03965 V 94 h 8.03383 8.03383 l -0.28383,10.75 -0.28383,10.75 -7.04369,0.28965 c -3.87403,0.1593 -7.36153,-0.0282 -7.75,-0.41667 z M 144.13559,105 c 0,-4.33333 -0.26667,-5 -2,-5 -1.73333,0 -2,0.66667 -2,5 0,4.33333 0.26667,5 2,5 1.73333,0 2,-0.66667 2,-5 z M 134.8419,83.372979 c -0.38847,-0.388472 -0.70631,-5.356312 -0.70631,-11.039646 V 62 h 8.03383 8.03383 l -0.28383,10.75 -0.28383,10.75 -7.04369,0.289645 c -3.87403,0.159305 -7.36153,-0.02819 -7.75,-0.416666 z M 144.13559,73 c 0,-4.333333 -0.26667,-5 -2,-5 -1.73333,0 -2,0.666667 -2,5 0,4.333333 0.26667,5 2,5 1.73333,0 2,-0.666667 2,-5 z"
     inkscape:connector-curvature="0" />
  <path
     class="f3"
     id="path117"
     style="fill:#fefefe"
     d="m 43.33333,168.75 0.30226,-5.25 h 40 40 v 2.5 2.5 l -37.25,0.26217 -37.25,0.26217 v 2.48783 c 0,2.10705 -0.46716,2.48783 -3.05226,2.48783 h -3.05226 z m 5.26208,-12 C 48.33284,156.0625 48.23446,123.775 48.3768,85 l 0.25879,-70.5 h 37.5 37.5 V 86 157.5 l -2.75,0.31642 -2.75,0.31642 V 89.066422 20 h -32 -32 v 69 69 h -2.53138 c -1.39226,0 -2.74622,-0.5625 -3.0088,-1.25 z m 21.54018,-11.63132 v -13.01416 l -5.25,-0.30226 C 59.9889,131.52034 59.6143,131.31493 59.31917,128.75 L 59.00275,126 h 27.13284 27.13284 l -0.31642,2.75 c -0.29513,2.56493 -0.66973,2.77034 -5.56642,3.05226 l -5.25,0.30226 v 13.01416 13.01416 l -2.75,-0.31642 L 96.63559,157.5 96.35572,144.75 96.07584,132 h -9.94025 -9.94024 l -0.27988,12.75 -0.27988,12.75 -2.75,0.31642 -2.75,0.31642 z m 13.70885,2.25684 c -0.38986,-0.38987 -0.70885,-1.75885 -0.70885,-3.04219 0,-1.93715 0.52065,-2.33333 3.06643,-2.33333 2.75523,0 3.03431,0.27908 2.75,2.75 -0.31018,2.69573 -3.4324,4.30069 -5.10758,2.62552 z M 65.25292,114.64137 c -0.78938,-0.95115 -1.09699,-4.61406 -0.90619,-10.79066 L 64.63559,94.5 72.91984,94.209004 81.20409,93.918009 80.91984,104.709 80.63559,115.5 l -7.09381,0.29066 c -5.23243,0.21439 -7.40739,-0.0872 -8.28886,-1.14929 z M 75.13559,105 c 0,-4.66667 -0.16666,-5 -2.5,-5 -2.33333,0 -2.5,0.33333 -2.5,5 0,4.66667 0.16667,5 2.5,5 2.33334,0 2.5,-0.33333 2.5,-5 z m 16.66667,10.33333 c -0.36667,-0.36666 -0.66667,-5.33486 -0.66667,-11.04044 V 93.919115 l 8.25,0.290443 8.25,0.290442 0.28886,9.35071 c 0.18643,6.03499 -0.12294,9.8469 -0.87245,10.75001 -1.20455,1.4514 -13.92009,2.06227 -15.24974,0.73261 z M 102.13559,105 c 0,-4.66667 -0.16666,-5 -2.5,-5 -2.33333,0 -2.5,0.33333 -2.5,5 0,4.66667 0.16667,5 2.5,5 2.33334,0 2.5,-0.33333 2.5,-5 z M 65.25292,82.641372 C 64.46354,81.690221 64.15593,78.027314 64.34673,71.850715 L 64.63559,62.5 72.91984,62.209004 81.20409,61.918009 80.91984,72.709004 80.63559,83.5 73.54178,83.790657 c -5.23243,0.21439 -7.40739,-0.08718 -8.28886,-1.149285 z M 75.13559,73 c 0,-4.666667 -0.16666,-5 -2.5,-5 -2.33333,0 -2.5,0.333333 -2.5,5 0,4.666667 0.16667,5 2.5,5 2.33334,0 2.5,-0.333333 2.5,-5 z M 91.80226,83.333333 C 91.43559,82.966667 91.13559,77.998468 91.13559,72.292891 V 61.919115 l 8.25,0.290443 8.25,0.290442 0.28886,9.350715 c 0.18643,6.034987 -0.12294,9.846896 -0.87245,10.75 -1.20455,1.4514 -13.92009,2.062272 -15.24974,0.732618 z M 102.13559,73 c 0,-4.666667 -0.16666,-5 -2.5,-5 -2.33333,0 -2.5,0.333333 -2.5,5 0,4.666667 0.16667,5 2.5,5 2.33334,0 2.5,-0.333333 2.5,-5 z M 65.25292,50.641372 C 64.46354,49.690221 64.15593,46.027314 64.34673,39.850715 L 64.63559,30.5 72.91984,30.209004 81.20409,29.918009 80.91984,40.709004 80.63559,51.5 73.54178,51.790657 c -5.23243,0.21439 -7.40739,-0.08718 -8.28886,-1.149285 z M 75.13559,41 c 0,-4.666667 -0.16666,-5 -2.5,-5 -2.33333,0 -2.5,0.333333 -2.5,5 0,4.666667 0.16667,5 2.5,5 2.33334,0 2.5,-0.333333 2.5,-5 z M 91.80226,51.333333 C 91.43559,50.966667 91.13559,45.998468 91.13559,40.292891 V 29.919115 l 8.25,0.290443 8.25,0.290442 0.28886,9.350715 c 0.18643,6.034987 -0.12294,9.846896 -0.87245,10.75 -1.20455,1.4514 -13.92009,2.062272 -15.24974,0.732618 z M 102.13559,41 c 0,-4.666667 -0.16666,-5 -2.5,-5 -2.33333,0 -2.5,0.333333 -2.5,5 0,4.666667 0.16667,5 2.5,5 2.33334,0 2.5,-0.333333 2.5,-5 z"
     inkscape:connector-curvature="0" />
  <path
     class="f4"
     id="path32"
     style="fill:#fefefe"
     d="m 33.36478,114.82919 c -0.73123,-0.73124 -1.22919,-3.98393 -1.22919,-8.02919 0,-6.05167 -0.21244,-6.8 -1.93045,-6.8 -1.24059,0 -2.04464,0.80404 -2.25,2.25 -0.23407,1.64812 -0.9883,2.25 -2.81955,2.25 -2.31082,0 -2.52287,-0.39727 -2.80226,-5.25 L 22.03107,94 h 8.0861 8.08609 l -0.28383,10.73815 c -0.22899,8.66306 -0.57772,10.79438 -1.80465,11.02918 -0.83645,0.16007 -2.07395,-0.26209 -2.75,-0.93814 z M 6.84444,104.37552 C 6.45458,103.98565 6.13559,90.691667 6.13559,74.833333 V 46 h 18.53139 c 15.61919,0 18.62261,0.237725 19.11187,1.512735 0.31927,0.832004 0.025,2.182004 -0.65383,3 C 42.13387,51.706997 38.96298,52 27.02975,52 H 12.1688 l -0.2666,26.25 c -0.25963,25.56351 -0.31999,26.25764 -2.30776,26.54218 -1.12263,0.1607 -2.36013,-0.0268 -2.75,-0.41666 z M 32.13559,73 c 0,-4.333333 -0.26666,-5 -2,-5 -1.73333,0 -2,0.666667 -2,5 0,4.333333 0.26667,5 2,5 1.73334,0 2,-0.666667 2,-5 z M 22.84191,83.372979 C 22.45343,82.984507 22.13559,78.016667 22.13559,72.333333 V 62 h 8.03384 8.03383 l -0.28383,10.75 -0.28384,10.75 -7.04368,0.289645 c -3.87403,0.159305 -7.36153,-0.02819 -7.75,-0.416666 z"
     inkscape:connector-curvature="0" />
</svg>
