
<svg
   xmlns:dc="http://purl.org/dc/elements/1.1/"
   xmlns:cc="http://creativecommons.org/ns#"
   xmlns:rdf="http://www.w3.org/1999/02/22-rdf-syntax-ns#"
   xmlns:svg="http://www.w3.org/2000/svg"
   xmlns="http://www.w3.org/2000/svg"
   xmlns:sodipodi="http://sodipodi.sourceforge.net/DTD/sodipodi-0.dtd"
   xmlns:inkscape="http://www.inkscape.org/namespaces/inkscape"
   version="1.1"
   id="svg293"
   width="174"
   height="174"
   viewBox="0 0 174 174"
   sodipodi:docname="tipo1.svg"
   inkscape:version="0.92.0 r15299">
  <metadata
     id="metadata299">
    <rdf:RDF>
      <cc:Work
         rdf:about="">
        <dc:format>image/svg+xml</dc:format>
        <dc:type
           rdf:resource="http://purl.org/dc/dcmitype/StillImage" />
        <dc:title />
      </cc:Work>
    </rdf:RDF>
  </metadata>
  <defs
     id="defs297" />
  <sodipodi:namedview
     pagecolor="#ffffff"
     bordercolor="#666666"
     borderopacity="1"
     objecttolerance="10"
     gridtolerance="10"
     guidetolerance="10"
     inkscape:pageopacity="0"
     inkscape:pageshadow="2"
     inkscape:window-width="1920"
     inkscape:window-height="1017"
     id="namedview295"
     showgrid="false"
     inkscape:zoom="1.6978417"
     inkscape:cx="-25.866527"
     inkscape:cy="69.5"
     inkscape:window-x="-8"
     inkscape:window-y="-8"
     inkscape:window-maximized="1"
     inkscape:current-layer="svg293" />
  <path
     class="g1"
     id="path347"
     style="fill:#fefefe"
     d="m 135.64244,133.35298 0.2633,-33.750004 6.9762,-0.5 6.9762,-0.5 -29.9762,-25.91084 C 103.39503,58.441174 89.000705,45.976199 87.894565,44.992192 c -1.97033,-1.752772 -2.6606,-1.226611 -33.99227,25.910841 l -31.98111,27.699943 6.99227,0.5 6.99228,0.5 0.2633,33.750004 0.2633,33.75 h 49.4734 49.473405 z M 30.012725,172.52119 c -0.33385,-0.86998 -0.60699,-16.15424 -0.60699,-33.96501 v -32.38324 l -10.25,-0.28498 -10.25,-0.28498 v -2.79585 c 0,-2.43303 4.85528,-7.007428 37.41445,-35.25 24.38405,-21.15128 38.17059,-32.454155 39.58555,-32.454155 1.41496,0 15.201495,11.302875 39.585545,32.454155 32.55918,28.242572 37.41446,32.81697 37.41446,35.25 v 2.79585 l -10.25,0.28498 -10.25,0.28498 v 32.38324 c 0,17.81077 -0.27314,33.09503 -0.60699,33.96501 -0.54337,1.41599 -6.40188,1.58179 -55.893015,1.58179 -49.49113,0 -55.34965,-0.1658 -55.89301,-1.58179 z"
     inkscape:connector-curvature="0" />
  <path
     class="g2"
     id="path343"
     style="fill:#fefefe"
     d="m 98.86887,135.04153 c 10.6863,-9.31697 13.95269,-12.93873 16.99438,-18.84334 3.42974,-6.65789 -0.19362,-14.68331 -7.97015,-17.653191 -4.24418,-1.620864 -4.7336,-1.619702 -9.03086,0.02144 -2.498915,0.954346 -5.508545,3.040481 -6.688055,4.635861 -1.19569,1.61725 -3.0843,2.90068 -4.26845,2.90068 -1.18416,0 -3.07277,-1.28343 -4.26845,-2.90069 -1.17952,-1.59537 -4.18914,-3.681509 -6.68806,-4.635855 -4.29726,-1.641138 -4.78668,-1.6423 -9.03085,-0.02144 -8.04466,3.072285 -11.39843,10.965275 -7.70931,18.143625 1.10642,2.15289 3.5158,5.61079 5.35417,7.68421 3.88509,4.38182 20.97042,19.56439 22.12745,19.66315 0.43172,0.0368 5.4619,-4.01065 11.178185,-8.99445 z m -22.696775,9.18657 c -19.3125,-16.69493 -24.72244,-23.9436 -24.72244,-33.12512 0,-11.216748 9.75685,-20.98885 20.95608,-20.98885 4.21977,0 9.85859,1.963142 12.72785,4.431178 l 2.73115,2.349233 2.80155,-2.357353 c 9.846995,-8.285698 26.344545,-4.115456 31.874475,8.057212 3.98721,8.7768 1.57484,17.69597 -7.34307,27.1492 -7.40406,7.84851 -25.526205,23.35938 -27.291955,23.35938 -0.80701,0 -6.08715,-3.9937 -11.73364,-8.87488 z"
     inkscape:connector-curvature="0" />
  <path
     class="g3"
     id="path323"
     style="opacity:0.79000005;fill:#fefefe"
     d="m 101.49147,68.706275 c -1.84064,-2.217834 -0.96048,-6.049687 1.46944,-6.397319 2.92674,-0.41871 6.18859,3.387994 4.80066,5.602556 -1.40342,2.239286 -4.72214,2.659947 -6.2701,0.794763 z m 17.61109,15.741078 c -9.14732,-8.144449 -10.75672,-10.019252 -10.5,-12.231575 0.59076,-5.091145 3.74644,-3.765154 15.34697,6.448683 8.75067,7.704645 10.95621,10.17919 10.95621,12.292528 0,2.093966 -0.52156,2.694299 -2.5,2.877562 -1.90888,0.176819 -5.05438,-2.042758 -13.30318,-9.387198 z"
     inkscape:connector-curvature="0" />
</svg>
